# xmcd
#
# Track frame offsets: 
#        150
#        21051
#        36798
#        55941
#        76181
#        102615
#        117834
#        135926
#        149831
#        163680
#        183936
#        198621
#        215891
#        237225
#        260591
#        280712
#        292306
#
# Disc length: 4145 seconds
#
# Revision: 0
# Processed by: cddbd v1.5.2PL0 Copyright (c) Steve Scherf et al.
# Submitted via: ExactAudioCopyFreeDBPlugin 1.0
#
DISCID=08102f11
DTITLE=Astral Groove - Astral Groove (2001, Fono FO62CD)
DYEAR=1995
DGENRE=Hard Rock
TTITLE0=01-Heart of Stone
TTITLE1=02-If I Could Fly
TTITLE2=03-Can't Find a Way
TTITLE3=04-Burning Desire
TTITLE4=05-King of Lost Dreams
TTITLE5=06-Until We Meet
TTITLE6=07-No Way to Misunderstand
TTITLE7=08-Snowblind
TTITLE8=09-Not Foolin' Me
TTITLE9=10-World is Burning
TTITLE10=11-Slave to the Moon
TTITLE11=12-Lonely Child
TTITLE12=13-Persident
TTITLE13=14-How Does It Feel?
TTITLE14=15-Merry-Go-Round
TTITLE15=16-Tango In Sane
TTITLE16=17-Let Me In (Bonus Track)
EXTD=
EXTT0=
EXTT1=
EXTT2=
EXTT3=
EXTT4=
EXTT5=
EXTT6=
EXTT7=
EXTT8=
EXTT9=
EXTT10=
EXTT11=
EXTT12=
EXTT13=
EXTT14=
EXTT15=
EXTT16=
PLAYORDER=
